STARTFONT 2.1
COMMENT AUTOMATICALLY GENERATED FILE. DO NOT EDIT!
COMMENT Generated with 'ucs2any koi5x8-ucs.bdf /usr/share/fonts/X11/util/map-ISO8859-5 ISO8859-5'
COMMENT from an ISO10646-1 encoded source BDF font.
COMMENT ucs2any by Ben Collver <collver1@attbi.com>, 2003, based on
COMMENT ucs2any.pl by Markus Kuhn <http://www.cl.cam.ac.uk/~mgk25/>, 2000.
COMMENT AUTOMATICALLY GENERATED FILE. DO NOT EDIT!
COMMENT Generated with 'ucs2any.pl 5x8.bdf ../xcyr-2.3/tryfont/KOI8-C.TXT KOI8-C'
COMMENT from an ISO10646-1 encoded source BDF font.
COMMENT ucs2any.pl by Markus Kuhn <mkuhn@acm.org>, 1999.
COMMENT $Id$
COMMENT Send bug reports to Markus Kuhn <mkuhn@acm.org>
COMMENT Changes 1999 by Serge Winitzki.
COMMENT $XFree86$
FONT -Misc-Fixed-Medium-R-Normal--8-80-75-75-C-50-ISO8859-5
SIZE 11 75 75
FONTBOUNDINGBOX 5 8 0 -1
STARTPROPERTIES 22
FONTNAME_REGISTRY ""
FOUNDRY "Misc"
FAMILY_NAME "Fixed"
WEIGHT_NAME "Medium"
SLANT "R"
SETWIDTH_NAME "Normal"
ADD_STYLE_NAME ""
PIXEL_SIZE 8
POINT_SIZE 80
RESOLUTION_X 75
RESOLUTION_Y 75
SPACING "C"
AVERAGE_WIDTH 50
CHARSET_REGISTRY "ISO8859"
CHARSET_ENCODING "5"
FONT_DESCENT 1
FONT_ASCENT 7
COPYRIGHT "Public domain font.  Share and enjoy."
DEFAULT_CHAR 0
CAP_HEIGHT 6
X_HEIGHT 4
_XFREE86_GLYPH_RANGES "0_126 149 152_154 156_158 163 179 191_255"
ENDPROPERTIES
CHARS 185
STARTCHAR uni25C6
ENCODING 1
SWIDTH 436 0
DWIDTH 5 0
BBX 5 5 0 0
BITMAP
20
70
F8
70
20
ENDCHAR
STARTCHAR uni2592
ENCODING 2
SWIDTH 436 0
DWIDTH 5 0
BBX 5 8 0 -1
BITMAP
50
A8
50
A8
50
A8
50
A8
ENDCHAR
STARTCHAR uni00B1
ENCODING 8
SWIDTH 436 0
DWIDTH 5 0
BBX 5 5 0 0
BITMAP
20
70
20
00
70
ENDCHAR
STARTCHAR uni2518
ENCODING 11
SWIDTH 436 0
DWIDTH 5 0
BBX 5 4 0 3
BITMAP
20
20
20
E0
ENDCHAR
STARTCHAR uni2510
ENCODING 12
SWIDTH 436 0
DWIDTH 5 0
BBX 5 5 0 -1
BITMAP
E0
20
20
20
20
ENDCHAR
STARTCHAR uni250C
ENCODING 13
SWIDTH 436 0
DWIDTH 5 0
BBX 5 5 0 -1
BITMAP
38
20
20
20
20
ENDCHAR
STARTCHAR uni2514
ENCODING 14
SWIDTH 436 0
DWIDTH 5 0
BBX 5 4 0 3
BITMAP
20
20
20
38
ENDCHAR
STARTCHAR uni253C
ENCODING 15
SWIDTH 436 0
DWIDTH 5 0
BBX 5 8 0 -1
BITMAP
20
20
20
F8
20
20
20
20
ENDCHAR
STARTCHAR uni2500
ENCODING 18
SWIDTH 436 0
DWIDTH 5 0
BBX 5 1 0 3
BITMAP
F8
ENDCHAR
STARTCHAR uni251C
ENCODING 21
SWIDTH 436 0
DWIDTH 5 0
BBX 5 8 0 -1
BITMAP
20
20
20
38
20
20
20
20
ENDCHAR
STARTCHAR uni2524
ENCODING 22
SWIDTH 436 0
DWIDTH 5 0
BBX 5 8 0 -1
BITMAP
20
20
20
E0
20
20
20
20
ENDCHAR
STARTCHAR uni2534
ENCODING 23
SWIDTH 436 0
DWIDTH 5 0
BBX 5 4 0 3
BITMAP
20
20
20
F8
ENDCHAR
STARTCHAR uni252C
ENCODING 24
SWIDTH 436 0
DWIDTH 5 0
BBX 5 5 0 -1
BITMAP
F8
20
20
20
20
ENDCHAR
STARTCHAR uni2502
ENCODING 25
SWIDTH 436 0
DWIDTH 5 0
BBX 5 8 0 -1
BITMAP
20
20
20
20
20
20
20
20
ENDCHAR
STARTCHAR uni2264
ENCODING 26
SWIDTH 436 0
DWIDTH 5 0
BBX 5 6 0 0
BITMAP
10
20
40
20
10
70
ENDCHAR
STARTCHAR uni2265
ENCODING 27
SWIDTH 436 0
DWIDTH 5 0
BBX 5 6 0 0
BITMAP
40
20
10
20
40
70
ENDCHAR
STARTCHAR uni03C0
ENCODING 28
SWIDTH 436 0
DWIDTH 5 0
BBX 5 4 0 0
BITMAP
F8
50
50
50
ENDCHAR
STARTCHAR uni2260
ENCODING 29
SWIDTH 436 0
DWIDTH 5 0
BBX 5 5 0 0
BITMAP
20
F0
60
F0
40
ENDCHAR
STARTCHAR uni00A3
ENCODING 30
SWIDTH 436 0
DWIDTH 5 0
BBX 5 6 0 0
BITMAP
10
20
40
20
10
70
ENDCHAR
STARTCHAR uni00B7
ENCODING 31
SWIDTH 436 0
DWIDTH 5 0
BBX 5 6 0 0
BITMAP
40
20
10
20
40
70
ENDCHAR
STARTCHAR uni0020
ENCODING 32
SWIDTH 436 0
DWIDTH 5 0
BBX 0 0 0 0
BITMAP
ENDCHAR
STARTCHAR uni0021
ENCODING 33
SWIDTH 436 0
DWIDTH 5 0
BBX 5 6 0 0
BITMAP
20
20
20
20
00
20
ENDCHAR
STARTCHAR uni0022
ENCODING 34
SWIDTH 436 0
DWIDTH 5 0
BBX 5 3 0 3
BITMAP
50
50
50
ENDCHAR
STARTCHAR uni0023
ENCODING 35
SWIDTH 436 0
DWIDTH 5 0
BBX 5 7 0 0
BITMAP
50
50
F8
50
F8
50
50
ENDCHAR
STARTCHAR uni0024
ENCODING 36
SWIDTH 436 0
DWIDTH 5 0
BBX 5 7 0 0
BITMAP
20
70
A0
70
28
70
20
ENDCHAR
STARTCHAR uni0025
ENCODING 37
SWIDTH 436 0
DWIDTH 5 0
BBX 5 5 0 1
BITMAP
40
50
20
50
10
ENDCHAR
STARTCHAR uni0026
ENCODING 38
SWIDTH 436 0
DWIDTH 5 0
BBX 5 7 0 0
BITMAP
40
A0
A0
40
A0
A0
50
ENDCHAR
STARTCHAR uni0027
ENCODING 39
SWIDTH 436 0
DWIDTH 5 0
BBX 5 3 0 3
BITMAP
20
20
20
ENDCHAR
STARTCHAR uni0028
ENCODING 40
SWIDTH 436 0
DWIDTH 5 0
BBX 5 6 0 0
BITMAP
20
40
40
40
40
20
ENDCHAR
STARTCHAR uni0029
ENCODING 41
SWIDTH 436 0
DWIDTH 5 0
BBX 5 6 0 0
BITMAP
40
20
20
20
20
40
ENDCHAR
STARTCHAR uni002A
ENCODING 42
SWIDTH 436 0
DWIDTH 5 0
BBX 5 5 0 0
BITMAP
90
60
F0
60
90
ENDCHAR
STARTCHAR uni002B
ENCODING 43
SWIDTH 436 0
DWIDTH 5 0
BBX 5 5 0 0
BITMAP
20
20
F8
20
20
ENDCHAR
STARTCHAR uni002C
ENCODING 44
SWIDTH 436 0
DWIDTH 5 0
BBX 5 3 0 -1
BITMAP
30
20
40
ENDCHAR
STARTCHAR uni002D
ENCODING 45
SWIDTH 436 0
DWIDTH 5 0
BBX 5 1 0 2
BITMAP
F0
ENDCHAR
STARTCHAR uni002E
ENCODING 46
SWIDTH 436 0
DWIDTH 5 0
BBX 5 3 0 -1
BITMAP
20
70
20
ENDCHAR
STARTCHAR uni002F
ENCODING 47
SWIDTH 436 0
DWIDTH 5 0
BBX 5 6 0 0
BITMAP
10
10
20
40
80
80
ENDCHAR
STARTCHAR uni0030
ENCODING 48
SWIDTH 436 0
DWIDTH 5 0
BBX 5 6 0 0
BITMAP
20
50
50
50
50
20
ENDCHAR
STARTCHAR uni0031
ENCODING 49
SWIDTH 436 0
DWIDTH 5 0
BBX 5 6 0 0
BITMAP
20
60
20
20
20
70
ENDCHAR
STARTCHAR uni0032
ENCODING 50
SWIDTH 436 0
DWIDTH 5 0
BBX 5 6 0 0
BITMAP
60
90
10
60
80
F0
ENDCHAR
STARTCHAR uni0033
ENCODING 51
SWIDTH 436 0
DWIDTH 5 0
BBX 5 6 0 0
BITMAP
F0
20
60
10
90
60
ENDCHAR
STARTCHAR uni0034
ENCODING 52
SWIDTH 436 0
DWIDTH 5 0
BBX 5 6 0 0
BITMAP
20
60
A0
F0
20
20
ENDCHAR
STARTCHAR uni0035
ENCODING 53
SWIDTH 436 0
DWIDTH 5 0
BBX 5 6 0 0
BITMAP
F0
80
E0
10
90
60
ENDCHAR
STARTCHAR uni0036
ENCODING 54
SWIDTH 436 0
DWIDTH 5 0
BBX 5 6 0 0
BITMAP
60
80
E0
90
90
60
ENDCHAR
STARTCHAR uni0037
ENCODING 55
SWIDTH 436 0
DWIDTH 5 0
BBX 5 6 0 0
BITMAP
F0
10
20
20
40
40
ENDCHAR
STARTCHAR uni0038
ENCODING 56
SWIDTH 436 0
DWIDTH 5 0
BBX 5 6 0 0
BITMAP
60
90
60
90
90
60
ENDCHAR
STARTCHAR uni0039
ENCODING 57
SWIDTH 436 0
DWIDTH 5 0
BBX 5 6 0 0
BITMAP
60
90
90
70
10
60
ENDCHAR
STARTCHAR uni003A
ENCODING 58
SWIDTH 436 0
DWIDTH 5 0
BBX 5 5 0 0
BITMAP
60
60
00
60
60
ENDCHAR
STARTCHAR uni003B
ENCODING 59
SWIDTH 436 0
DWIDTH 5 0
BBX 5 6 0 -1
BITMAP
30
30
00
30
20
40
ENDCHAR
STARTCHAR uni003C
ENCODING 60
SWIDTH 436 0
DWIDTH 5 0
BBX 5 6 0 0
BITMAP
10
20
40
40
20
10
ENDCHAR
STARTCHAR uni003D
ENCODING 61
SWIDTH 436 0
DWIDTH 5 0
BBX 5 3 0 1
BITMAP
F0
00
F0
ENDCHAR
STARTCHAR uni003E
ENCODING 62
SWIDTH 436 0
DWIDTH 5 0
BBX 5 6 0 0
BITMAP
40
20
10
10
20
40
ENDCHAR
STARTCHAR uni003F
ENCODING 63
SWIDTH 436 0
DWIDTH 5 0
BBX 5 6 0 0
BITMAP
20
50
10
20
00
20
ENDCHAR
STARTCHAR uni0040
ENCODING 64
SWIDTH 436 0
DWIDTH 5 0
BBX 5 8 0 -1
BITMAP
30
48
98
A8
A8
90
40
30
ENDCHAR
STARTCHAR uni0041
ENCODING 65
SWIDTH 436 0
DWIDTH 5 0
BBX 5 6 0 0
BITMAP
60
90
90
F0
90
90
ENDCHAR
STARTCHAR uni0042
ENCODING 66
SWIDTH 436 0
DWIDTH 5 0
BBX 5 6 0 0
BITMAP
E0
90
E0
90
90
E0
ENDCHAR
STARTCHAR uni0043
ENCODING 67
SWIDTH 436 0
DWIDTH 5 0
BBX 5 6 0 0
BITMAP
60
90
80
80
90
60
ENDCHAR
STARTCHAR uni0044
ENCODING 68
SWIDTH 436 0
DWIDTH 5 0
BBX 5 6 0 0
BITMAP
E0
90
90
90
90
E0
ENDCHAR
STARTCHAR uni0045
ENCODING 69
SWIDTH 436 0
DWIDTH 5 0
BBX 5 6 0 0
BITMAP
F0
80
E0
80
80
F0
ENDCHAR
STARTCHAR uni0046
ENCODING 70
SWIDTH 436 0
DWIDTH 5 0
BBX 5 6 0 0
BITMAP
F0
80
E0
80
80
80
ENDCHAR
STARTCHAR uni0047
ENCODING 71
SWIDTH 436 0
DWIDTH 5 0
BBX 5 6 0 0
BITMAP
60
90
80
B0
90
60
ENDCHAR
STARTCHAR uni0048
ENCODING 72
SWIDTH 436 0
DWIDTH 5 0
BBX 5 6 0 0
BITMAP
90
90
F0
90
90
90
ENDCHAR
STARTCHAR uni0049
ENCODING 73
SWIDTH 436 0
DWIDTH 5 0
BBX 5 6 0 0
BITMAP
70
20
20
20
20
70
ENDCHAR
STARTCHAR uni004A
ENCODING 74
SWIDTH 436 0
DWIDTH 5 0
BBX 5 6 0 0
BITMAP
70
20
20
20
A0
40
ENDCHAR
STARTCHAR uni004B
ENCODING 75
SWIDTH 436 0
DWIDTH 5 0
BBX 5 6 0 0
BITMAP
90
A0
C0
A0
A0
90
ENDCHAR
STARTCHAR uni004C
ENCODING 76
SWIDTH 436 0
DWIDTH 5 0
BBX 5 6 0 0
BITMAP
80
80
80
80
80
F0
ENDCHAR
STARTCHAR uni004D
ENCODING 77
SWIDTH 436 0
DWIDTH 5 0
BBX 5 6 0 0
BITMAP
90
F0
F0
90
90
90
ENDCHAR
STARTCHAR uni004E
ENCODING 78
SWIDTH 436 0
DWIDTH 5 0
BBX 5 6 0 0
BITMAP
90
D0
F0
B0
B0
90
ENDCHAR
STARTCHAR uni004F
ENCODING 79
SWIDTH 436 0
DWIDTH 5 0
BBX 5 6 0 0
BITMAP
60
90
90
90
90
60
ENDCHAR
STARTCHAR uni0050
ENCODING 80
SWIDTH 436 0
DWIDTH 5 0
BBX 5 6 0 0
BITMAP
E0
90
90
E0
80
80
ENDCHAR
STARTCHAR uni0051
ENCODING 81
SWIDTH 436 0
DWIDTH 5 0
BBX 5 7 0 -1
BITMAP
60
90
90
D0
B0
60
10
ENDCHAR
STARTCHAR uni0052
ENCODING 82
SWIDTH 436 0
DWIDTH 5 0
BBX 5 6 0 0
BITMAP
E0
90
90
E0
90
90
ENDCHAR
STARTCHAR uni0053
ENCODING 83
SWIDTH 436 0
DWIDTH 5 0
BBX 5 6 0 0
BITMAP
60
90
40
20
90
60
ENDCHAR
STARTCHAR uni0054
ENCODING 84
SWIDTH 436 0
DWIDTH 5 0
BBX 5 6 0 0
BITMAP
70
20
20
20
20
20
ENDCHAR
STARTCHAR uni0055
ENCODING 85
SWIDTH 436 0
DWIDTH 5 0
BBX 5 6 0 0
BITMAP
90
90
90
90
90
60
ENDCHAR
STARTCHAR uni0056
ENCODING 86
SWIDTH 436 0
DWIDTH 5 0
BBX 5 6 0 0
BITMAP
90
90
90
90
60
60
ENDCHAR
STARTCHAR uni0057
ENCODING 87
SWIDTH 436 0
DWIDTH 5 0
BBX 5 6 0 0
BITMAP
90
90
90
F0
F0
90
ENDCHAR
STARTCHAR uni0058
ENCODING 88
SWIDTH 436 0
DWIDTH 5 0
BBX 5 6 0 0
BITMAP
90
90
60
60
90
90
ENDCHAR
STARTCHAR uni0059
ENCODING 89
SWIDTH 436 0
DWIDTH 5 0
BBX 5 6 0 0
BITMAP
88
88
50
20
20
20
ENDCHAR
STARTCHAR uni005A
ENCODING 90
SWIDTH 436 0
DWIDTH 5 0
BBX 5 6 0 0
BITMAP
F0
10
20
40
80
F0
ENDCHAR
STARTCHAR uni005B
ENCODING 91
SWIDTH 436 0
DWIDTH 5 0
BBX 5 6 0 0
BITMAP
70
40
40
40
40
70
ENDCHAR
STARTCHAR uni005C
ENCODING 92
SWIDTH 436 0
DWIDTH 5 0
BBX 5 6 0 0
BITMAP
80
80
40
20
10
10
ENDCHAR
STARTCHAR uni005D
ENCODING 93
SWIDTH 436 0
DWIDTH 5 0
BBX 5 6 0 0
BITMAP
70
10
10
10
10
70
ENDCHAR
STARTCHAR uni005E
ENCODING 94
SWIDTH 436 0
DWIDTH 5 0
BBX 5 2 0 4
BITMAP
20
50
ENDCHAR
STARTCHAR uni005F
ENCODING 95
SWIDTH 436 0
DWIDTH 5 0
BBX 5 1 0 -1
BITMAP
F0
ENDCHAR
STARTCHAR uni0060
ENCODING 96
SWIDTH 436 0
DWIDTH 5 0
BBX 5 2 0 4
BITMAP
40
20
ENDCHAR
STARTCHAR uni0061
ENCODING 97
SWIDTH 436 0
DWIDTH 5 0
BBX 5 4 0 0
BITMAP
70
90
90
70
ENDCHAR
STARTCHAR uni0062
ENCODING 98
SWIDTH 436 0
DWIDTH 5 0
BBX 5 6 0 0
BITMAP
80
80
E0
90
90
E0
ENDCHAR
STARTCHAR uni0063
ENCODING 99
SWIDTH 436 0
DWIDTH 5 0
BBX 5 4 0 0
BITMAP
30
40
40
30
ENDCHAR
STARTCHAR uni0064
ENCODING 100
SWIDTH 436 0
DWIDTH 5 0
BBX 5 6 0 0
BITMAP
10
10
70
90
90
70
ENDCHAR
STARTCHAR uni0065
ENCODING 101
SWIDTH 436 0
DWIDTH 5 0
BBX 5 4 0 0
BITMAP
60
B0
C0
60
ENDCHAR
STARTCHAR uni0066
ENCODING 102
SWIDTH 436 0
DWIDTH 5 0
BBX 5 6 0 0
BITMAP
20
50
40
E0
40
40
ENDCHAR
STARTCHAR uni0067
ENCODING 103
SWIDTH 436 0
DWIDTH 5 0
BBX 5 5 0 -1
BITMAP
60
90
70
10
60
ENDCHAR
STARTCHAR uni0068
ENCODING 104
SWIDTH 436 0
DWIDTH 5 0
BBX 5 6 0 0
BITMAP
80
80
E0
90
90
90
ENDCHAR
STARTCHAR uni0069
ENCODING 105
SWIDTH 436 0
DWIDTH 5 0
BBX 5 6 0 0
BITMAP
20
00
60
20
20
70
ENDCHAR
STARTCHAR uni006A
ENCODING 106
SWIDTH 436 0
DWIDTH 5 0
BBX 5 7 0 -1
BITMAP
10
00
10
10
10
50
20
ENDCHAR
STARTCHAR uni006B
ENCODING 107
SWIDTH 436 0
DWIDTH 5 0
BBX 5 6 0 0
BITMAP
80
80
90
E0
90
90
ENDCHAR
STARTCHAR uni006C
ENCODING 108
SWIDTH 436 0
DWIDTH 5 0
BBX 5 6 0 0
BITMAP
60
20
20
20
20
70
ENDCHAR
STARTCHAR uni006D
ENCODING 109
SWIDTH 436 0
DWIDTH 5 0
BBX 5 4 0 0
BITMAP
D0
A8
A8
A8
ENDCHAR
STARTCHAR uni006E
ENCODING 110
SWIDTH 436 0
DWIDTH 5 0
BBX 5 4 0 0
BITMAP
E0
90
90
90
ENDCHAR
STARTCHAR uni006F
ENCODING 111
SWIDTH 436 0
DWIDTH 5 0
BBX 5 4 0 0
BITMAP
60
90
90
60
ENDCHAR
STARTCHAR uni0070
ENCODING 112
SWIDTH 436 0
DWIDTH 5 0
BBX 5 5 0 -1
BITMAP
E0
90
E0
80
80
ENDCHAR
STARTCHAR uni0071
ENCODING 113
SWIDTH 436 0
DWIDTH 5 0
BBX 5 5 0 -1
BITMAP
70
90
70
10
10
ENDCHAR
STARTCHAR uni0072
ENCODING 114
SWIDTH 436 0
DWIDTH 5 0
BBX 5 4 0 0
BITMAP
A0
D0
80
80
ENDCHAR
STARTCHAR uni0073
ENCODING 115
SWIDTH 436 0
DWIDTH 5 0
BBX 5 4 0 0
BITMAP
30
60
10
60
ENDCHAR
STARTCHAR uni0074
ENCODING 116
SWIDTH 436 0
DWIDTH 5 0
BBX 5 6 0 0
BITMAP
40
40
E0
40
50
20
ENDCHAR
STARTCHAR uni0075
ENCODING 117
SWIDTH 436 0
DWIDTH 5 0
BBX 5 4 0 0
BITMAP
90
90
90
70
ENDCHAR
STARTCHAR uni0076
ENCODING 118
SWIDTH 436 0
DWIDTH 5 0
BBX 5 4 0 0
BITMAP
50
50
50
20
ENDCHAR
STARTCHAR uni0077
ENCODING 119
SWIDTH 436 0
DWIDTH 5 0
BBX 5 4 0 0
BITMAP
88
A8
A8
50
ENDCHAR
STARTCHAR uni0078
ENCODING 120
SWIDTH 436 0
DWIDTH 5 0
BBX 5 4 0 0
BITMAP
90
60
60
90
ENDCHAR
STARTCHAR uni0079
ENCODING 121
SWIDTH 436 0
DWIDTH 5 0
BBX 5 5 0 -1
BITMAP
90
90
70
90
60
ENDCHAR
STARTCHAR uni007A
ENCODING 122
SWIDTH 436 0
DWIDTH 5 0
BBX 5 4 0 0
BITMAP
F0
20
40
F0
ENDCHAR
STARTCHAR uni007B
ENCODING 123
SWIDTH 436 0
DWIDTH 5 0
BBX 5 7 0 0
BITMAP
30
40
20
C0
20
40
30
ENDCHAR
STARTCHAR uni007C
ENCODING 124
SWIDTH 436 0
DWIDTH 5 0
BBX 5 6 0 0
BITMAP
20
20
20
20
20
20
ENDCHAR
STARTCHAR uni007D
ENCODING 125
SWIDTH 436 0
DWIDTH 5 0
BBX 5 7 0 0
BITMAP
C0
20
40
30
40
20
C0
ENDCHAR
STARTCHAR uni007E
ENCODING 126
SWIDTH 436 0
DWIDTH 5 0
BBX 5 2 0 4
BITMAP
50
A0
ENDCHAR
STARTCHAR uni0401
ENCODING 161
SWIDTH 436 0
DWIDTH 5 0
BBX 5 6 0 0
BITMAP
F0
80
E0
80
80
F0
ENDCHAR
STARTCHAR uni0410
ENCODING 176
SWIDTH 436 0
DWIDTH 5 0
BBX 5 6 0 0
BITMAP
60
90
90
F0
90
90
ENDCHAR
STARTCHAR uni0411
ENCODING 177
SWIDTH 436 0
DWIDTH 5 0
BBX 5 6 0 0
BITMAP
E0
80
E0
90
90
E0
ENDCHAR
STARTCHAR uni0412
ENCODING 178
SWIDTH 436 0
DWIDTH 5 0
BBX 5 6 0 0
BITMAP
E0
90
E0
90
90
E0
ENDCHAR
STARTCHAR uni0413
ENCODING 179
SWIDTH 436 0
DWIDTH 5 0
BBX 5 6 0 0
BITMAP
F0
90
80
80
80
80
ENDCHAR
STARTCHAR uni0414
ENCODING 180
SWIDTH 436 0
DWIDTH 5 0
BBX 5 7 0 -1
BITMAP
60
A0
A0
A0
A0
F0
90
ENDCHAR
STARTCHAR uni0415
ENCODING 181
SWIDTH 436 0
DWIDTH 5 0
BBX 5 6 0 0
BITMAP
F0
80
E0
80
80
F0
ENDCHAR
STARTCHAR uni0416
ENCODING 182
SWIDTH 436 0
DWIDTH 5 0
BBX 5 6 0 0
BITMAP
A8
A8
70
A8
A8
A8
ENDCHAR
STARTCHAR uni0417
ENCODING 183
SWIDTH 436 0
DWIDTH 5 0
BBX 5 6 0 0
BITMAP
60
90
20
10
90
60
ENDCHAR
STARTCHAR uni0418
ENCODING 184
SWIDTH 436 0
DWIDTH 5 0
BBX 5 6 0 0
BITMAP
90
90
B0
D0
90
90
ENDCHAR
STARTCHAR uni0419
ENCODING 185
SWIDTH 436 0
DWIDTH 5 0
BBX 5 7 0 0
BITMAP
60
90
90
B0
D0
90
90
ENDCHAR
STARTCHAR uni041A
ENCODING 186
SWIDTH 436 0
DWIDTH 5 0
BBX 5 6 0 0
BITMAP
90
A0
C0
A0
90
90
ENDCHAR
STARTCHAR uni041B
ENCODING 187
SWIDTH 436 0
DWIDTH 5 0
BBX 5 6 0 0
BITMAP
30
50
50
50
50
90
ENDCHAR
STARTCHAR uni041C
ENCODING 188
SWIDTH 436 0
DWIDTH 5 0
BBX 5 6 0 0
BITMAP
90
F0
F0
90
90
90
ENDCHAR
STARTCHAR uni041D
ENCODING 189
SWIDTH 436 0
DWIDTH 5 0
BBX 5 6 0 0
BITMAP
90
90
F0
90
90
90
ENDCHAR
STARTCHAR uni041E
ENCODING 190
SWIDTH 436 0
DWIDTH 5 0
BBX 5 6 0 0
BITMAP
60
90
90
90
90
60
ENDCHAR
STARTCHAR uni041F
ENCODING 191
SWIDTH 436 0
DWIDTH 5 0
BBX 5 6 0 0
BITMAP
F0
90
90
90
90
90
ENDCHAR
STARTCHAR uni0420
ENCODING 192
SWIDTH 436 0
DWIDTH 5 0
BBX 5 6 0 0
BITMAP
E0
90
90
E0
80
80
ENDCHAR
STARTCHAR uni0421
ENCODING 193
SWIDTH 436 0
DWIDTH 5 0
BBX 5 6 0 0
BITMAP
60
90
80
80
90
60
ENDCHAR
STARTCHAR uni0422
ENCODING 194
SWIDTH 436 0
DWIDTH 5 0
BBX 5 6 0 0
BITMAP
70
20
20
20
20
20
ENDCHAR
STARTCHAR uni0423
ENCODING 195
SWIDTH 436 0
DWIDTH 5 0
BBX 5 6 0 0
BITMAP
90
90
90
70
10
E0
ENDCHAR
STARTCHAR uni0424
ENCODING 196
SWIDTH 436 0
DWIDTH 5 0
BBX 5 6 0 0
BITMAP
20
70
A8
A8
70
20
ENDCHAR
STARTCHAR uni0425
ENCODING 197
SWIDTH 436 0
DWIDTH 5 0
BBX 5 6 0 0
BITMAP
50
50
20
20
50
50
ENDCHAR
STARTCHAR uni0426
ENCODING 198
SWIDTH 436 0
DWIDTH 5 0
BBX 5 7 0 -1
BITMAP
A0
A0
A0
A0
A0
F0
10
ENDCHAR
STARTCHAR uni0427
ENCODING 199
SWIDTH 436 0
DWIDTH 5 0
BBX 5 6 0 0
BITMAP
50
50
50
30
10
10
ENDCHAR
STARTCHAR uni0428
ENCODING 200
SWIDTH 436 0
DWIDTH 5 0
BBX 5 6 0 0
BITMAP
A8
A8
A8
A8
A8
F8
ENDCHAR
STARTCHAR uni0429
ENCODING 201
SWIDTH 436 0
DWIDTH 5 0
BBX 5 7 0 -1
BITMAP
A8
A8
A8
A8
A8
F8
08
ENDCHAR
STARTCHAR uni042A
ENCODING 202
SWIDTH 436 0
DWIDTH 5 0
BBX 5 6 0 0
BITMAP
E0
20
30
28
28
30
ENDCHAR
STARTCHAR uni042B
ENCODING 203
SWIDTH 436 0
DWIDTH 5 0
BBX 5 6 0 0
BITMAP
88
88
C8
A8
A8
C8
ENDCHAR
STARTCHAR uni042C
ENCODING 204
SWIDTH 436 0
DWIDTH 5 0
BBX 5 6 0 0
BITMAP
40
40
60
50
50
60
ENDCHAR
STARTCHAR uni042D
ENCODING 205
SWIDTH 436 0
DWIDTH 5 0
BBX 5 6 0 0
BITMAP
E0
10
70
10
10
E0
ENDCHAR
STARTCHAR uni042E
ENCODING 206
SWIDTH 436 0
DWIDTH 5 0
BBX 5 6 0 0
BITMAP
90
A8
E8
A8
A8
90
ENDCHAR
STARTCHAR uni042F
ENCODING 207
SWIDTH 436 0
DWIDTH 5 0
BBX 5 6 0 0
BITMAP
70
90
90
70
90
90
ENDCHAR
STARTCHAR uni0430
ENCODING 208
SWIDTH 436 0
DWIDTH 5 0
BBX 5 4 0 0
BITMAP
70
90
90
70
ENDCHAR
STARTCHAR uni0431
ENCODING 209
SWIDTH 436 0
DWIDTH 5 0
BBX 5 7 0 0
BITMAP
10
60
80
E0
90
90
60
ENDCHAR
STARTCHAR uni0432
ENCODING 210
SWIDTH 436 0
DWIDTH 5 0
BBX 5 4 0 0
BITMAP
E0
E0
90
E0
ENDCHAR
STARTCHAR uni0433
ENCODING 211
SWIDTH 436 0
DWIDTH 5 0
BBX 5 4 0 0
BITMAP
70
40
40
40
ENDCHAR
STARTCHAR uni0434
ENCODING 212
SWIDTH 436 0
DWIDTH 5 0
BBX 5 5 0 -1
BITMAP
70
50
90
F0
90
ENDCHAR
STARTCHAR uni0435
ENCODING 213
SWIDTH 436 0
DWIDTH 5 0
BBX 5 4 0 0
BITMAP
60
B0
C0
60
ENDCHAR
STARTCHAR uni0436
ENCODING 214
SWIDTH 436 0
DWIDTH 5 0
BBX 5 4 0 0
BITMAP
A8
70
A8
A8
ENDCHAR
STARTCHAR uni0437
ENCODING 215
SWIDTH 436 0
DWIDTH 5 0
BBX 5 4 0 0
BITMAP
70
30
10
60
ENDCHAR
STARTCHAR uni0438
ENCODING 216
SWIDTH 436 0
DWIDTH 5 0
BBX 5 4 0 0
BITMAP
90
B0
D0
90
ENDCHAR
STARTCHAR uni0439
ENCODING 217
SWIDTH 436 0
DWIDTH 5 0
BBX 5 6 0 0
BITMAP
60
00
90
B0
D0
90
ENDCHAR
STARTCHAR uni043A
ENCODING 218
SWIDTH 436 0
DWIDTH 5 0
BBX 5 4 0 0
BITMAP
90
E0
A0
90
ENDCHAR
STARTCHAR uni043B
ENCODING 219
SWIDTH 436 0
DWIDTH 5 0
BBX 5 4 0 0
BITMAP
30
50
50
90
ENDCHAR
STARTCHAR uni043C
ENCODING 220
SWIDTH 436 0
DWIDTH 5 0
BBX 5 4 0 0
BITMAP
88
D8
A8
A8
ENDCHAR
STARTCHAR uni043D
ENCODING 221
SWIDTH 436 0
DWIDTH 5 0
BBX 5 4 0 0
BITMAP
90
F0
90
90
ENDCHAR
STARTCHAR uni043E
ENCODING 222
SWIDTH 436 0
DWIDTH 5 0
BBX 5 4 0 0
BITMAP
60
90
90
60
ENDCHAR
STARTCHAR uni043F
ENCODING 223
SWIDTH 436 0
DWIDTH 5 0
BBX 5 4 0 0
BITMAP
F0
90
90
90
ENDCHAR
STARTCHAR uni0440
ENCODING 224
SWIDTH 436 0
DWIDTH 5 0
BBX 5 5 0 -1
BITMAP
E0
90
90
E0
80
ENDCHAR
STARTCHAR uni0441
ENCODING 225
SWIDTH 436 0
DWIDTH 5 0
BBX 5 4 0 0
BITMAP
30
40
40
30
ENDCHAR
STARTCHAR uni0442
ENCODING 226
SWIDTH 436 0
DWIDTH 5 0
BBX 5 4 0 0
BITMAP
70
20
20
20
ENDCHAR
STARTCHAR uni0443
ENCODING 227
SWIDTH 436 0
DWIDTH 5 0
BBX 5 5 0 -1
BITMAP
90
90
50
20
40
ENDCHAR
STARTCHAR uni0444
ENCODING 228
SWIDTH 436 0
DWIDTH 5 0
BBX 5 7 0 -1
BITMAP
20
20
70
50
50
70
20
ENDCHAR
STARTCHAR uni0445
ENCODING 229
SWIDTH 436 0
DWIDTH 5 0
BBX 5 4 0 0
BITMAP
90
60
60
90
ENDCHAR
STARTCHAR uni0446
ENCODING 230
SWIDTH 436 0
DWIDTH 5 0
BBX 5 5 0 -1
BITMAP
90
90
90
F0
10
ENDCHAR
STARTCHAR uni0447
ENCODING 231
SWIDTH 436 0
DWIDTH 5 0
BBX 5 4 0 0
BITMAP
90
90
70
10
ENDCHAR
STARTCHAR uni0448
ENCODING 232
SWIDTH 436 0
DWIDTH 5 0
BBX 5 4 0 0
BITMAP
A8
A8
A8
F8
ENDCHAR
STARTCHAR uni0449
ENCODING 233
SWIDTH 436 0
DWIDTH 5 0
BBX 5 5 0 -1
BITMAP
A8
A8
A8
F8
08
ENDCHAR
STARTCHAR uni044A
ENCODING 234
SWIDTH 436 0
DWIDTH 5 0
BBX 5 4 0 0
BITMAP
C0
60
50
60
ENDCHAR
STARTCHAR uni044B
ENCODING 235
SWIDTH 436 0
DWIDTH 5 0
BBX 5 4 0 0
BITMAP
90
D0
B0
D0
ENDCHAR
STARTCHAR uni044C
ENCODING 236
SWIDTH 436 0
DWIDTH 5 0
BBX 5 4 0 0
BITMAP
80
E0
90
E0
ENDCHAR
STARTCHAR uni044D
ENCODING 237
SWIDTH 436 0
DWIDTH 5 0
BBX 5 4 0 0
BITMAP
60
30
10
60
ENDCHAR
STARTCHAR uni044E
ENCODING 238
SWIDTH 436 0
DWIDTH 5 0
BBX 5 4 0 0
BITMAP
A0
D0
D0
A0
ENDCHAR
STARTCHAR uni044F
ENCODING 239
SWIDTH 436 0
DWIDTH 5 0
BBX 5 4 0 0
BITMAP
30
50
30
50
ENDCHAR
STARTCHAR uni0451
ENCODING 241
SWIDTH 436 0
DWIDTH 5 0
BBX 5 6 0 0
BITMAP
A0
00
60
B0
C0
60
ENDCHAR
STARTCHAR uni0459
ENCODING 249
SWIDTH 436 0
DWIDTH 5 0
BBX 0 0 0 0
BITMAP
ENDCHAR
STARTCHAR uni045A
ENCODING 250
SWIDTH 436 0
DWIDTH 5 0
BBX 5 3 0 3
BITMAP
20
50
20
ENDCHAR
STARTCHAR uni045B
ENCODING 251
SWIDTH 436 0
DWIDTH 5 0
BBX 5 1 0 2
BITMAP
20
ENDCHAR
STARTCHAR uni045C
ENCODING 252
SWIDTH 436 0
DWIDTH 5 0
BBX 5 5 0 2
BITMAP
20
50
10
20
70
ENDCHAR
ENDFONT
